# Blender v2.81 (sub 16) OBJ File: ''
# www.blender.org
mtllib kolecko.mtl
o kolecko
v 0.000000 -0.250000 -0.937500
v 0.000000 -0.250000 -0.506250
v -0.193734 -0.250000 -0.467714
v -0.358766 -0.250000 -0.866137
v 0.000000 0.250000 -0.506250
v -0.193734 0.250000 -0.467714
v 0.000000 0.250000 -0.937500
v -0.358766 0.250000 -0.866137
v -0.357973 -0.250000 -0.357973
v -0.662913 -0.250000 -0.662913
v -0.357973 0.250000 -0.357973
v -0.662913 0.250000 -0.662913
v -0.467714 -0.250000 -0.193733
v -0.866137 -0.250000 -0.358766
v -0.467714 0.250000 -0.193733
v -0.866137 0.250000 -0.358766
v -0.506250 -0.250000 -0.000000
v -0.937500 -0.250000 -0.000000
v -0.506250 0.250000 0.000000
v -0.937500 0.250000 0.000000
v -0.467714 -0.250000 0.193734
v -0.866137 -0.250000 0.358766
v -0.467714 0.250000 0.193734
v -0.866137 0.250000 0.358766
v -0.357973 -0.250000 0.357973
v -0.662913 -0.250000 0.662913
v -0.357973 0.250000 0.357973
v -0.662913 0.250000 0.662913
v -0.193734 -0.250000 0.467714
v -0.358766 -0.250000 0.866137
v -0.193734 0.250000 0.467714
v -0.358766 0.250000 0.866137
v 0.000000 -0.250000 0.506250
v 0.000000 -0.250000 0.937500
v 0.000000 0.250000 0.506250
v 0.000000 0.250000 0.937500
v 0.193733 -0.250000 0.467714
v 0.358766 -0.250000 0.866137
v 0.193733 0.250000 0.467714
v 0.358766 0.250000 0.866137
v 0.357973 -0.250000 0.357973
v 0.662912 -0.250000 0.662913
v 0.357973 0.250000 0.357973
v 0.662912 0.250000 0.662913
v 0.467714 -0.250000 0.193734
v 0.866137 -0.250000 0.358766
v 0.467714 0.250000 0.193734
v 0.866137 0.250000 0.358766
v 0.506250 -0.250000 -0.000000
v 0.937500 -0.250000 -0.000000
v 0.506250 0.250000 0.000000
v 0.937500 0.250000 0.000000
v 0.467714 -0.250000 -0.193734
v 0.866137 -0.250000 -0.358766
v 0.467714 0.250000 -0.193734
v 0.866137 0.250000 -0.358766
v 0.357973 -0.250000 -0.357973
v 0.662912 -0.250000 -0.662913
v 0.357973 0.250000 -0.357973
v 0.662912 0.250000 -0.662913
v 0.193733 -0.250000 -0.467714
v 0.358765 -0.250000 -0.866137
v 0.193733 0.250000 -0.467714
v 0.358765 0.250000 -0.866137
vn -0.0000 -1.0000 -0.0000
vn 0.1951 -0.0000 0.9808
vn -0.0000 1.0000 0.0000
vn -0.1951 0.0000 -0.9808
vn 0.5556 -0.0000 0.8315
vn -0.5556 0.0000 -0.8315
vn 0.8315 -0.0000 0.5556
vn -0.8315 0.0000 -0.5556
vn 0.9808 0.0000 0.1951
vn -0.9808 0.0000 -0.1951
vn 0.9808 -0.0000 -0.1951
vn -0.9808 -0.0000 0.1951
vn 0.8315 0.0000 -0.5556
vn -0.8315 -0.0000 0.5556
vn 0.5556 0.0000 -0.8315
vn -0.5556 -0.0000 0.8315
vn 0.1951 0.0000 -0.9808
vn -0.1951 -0.0000 0.9808
usemtl None
s 1
f 2//1 4//1 1//1
f 5//2 3//2 2//2
f 5//3 8//3 6//3
f 1//4 8//4 7//4
f 4//1 9//1 10//1
f 6//5 9//5 3//5
f 8//3 11//3 6//3
f 4//6 12//6 8//6
f 9//1 14//1 10//1
f 11//7 13//7 9//7
f 11//3 16//3 15//3
f 10//8 16//8 12//8
f 13//1 18//1 14//1
f 15//9 17//9 13//9
f 15//3 20//3 19//3
f 14//10 20//10 16//10
f 17//1 22//1 18//1
f 19//11 21//11 17//11
f 19//3 24//3 23//3
f 18//12 24//12 20//12
f 22//1 25//1 26//1
f 23//13 25//13 21//13
f 24//3 27//3 23//3
f 22//14 28//14 24//14
f 25//1 30//1 26//1
f 27//15 29//15 25//15
f 27//3 32//3 31//3
f 26//16 32//16 28//16
f 30//1 33//1 34//1
f 31//17 33//17 29//17
f 32//3 35//3 31//3
f 30//18 36//18 32//18
f 34//1 37//1 38//1
f 35//4 37//4 33//4
f 36//3 39//3 35//3
f 34//2 40//2 36//2
f 38//1 41//1 42//1
f 39//6 41//6 37//6
f 40//3 43//3 39//3
f 38//5 44//5 40//5
f 42//1 45//1 46//1
f 43//8 45//8 41//8
f 44//3 47//3 43//3
f 42//7 48//7 44//7
f 46//1 49//1 50//1
f 47//10 49//10 45//10
f 48//3 51//3 47//3
f 46//9 52//9 48//9
f 49//1 54//1 50//1
f 51//12 53//12 49//12
f 51//3 56//3 55//3
f 50//11 56//11 52//11
f 53//1 58//1 54//1
f 55//14 57//14 53//14
f 55//3 60//3 59//3
f 54//13 60//13 56//13
f 57//1 62//1 58//1
f 59//16 61//16 57//16
f 59//3 64//3 63//3
f 58//15 64//15 60//15
f 62//1 2//1 1//1
f 63//18 2//18 61//18
f 64//3 5//3 63//3
f 62//17 7//17 64//17
f 2//1 3//1 4//1
f 5//2 6//2 3//2
f 5//3 7//3 8//3
f 1//4 4//4 8//4
f 4//1 3//1 9//1
f 6//5 11//5 9//5
f 8//3 12//3 11//3
f 4//6 10//6 12//6
f 9//1 13//1 14//1
f 11//7 15//7 13//7
f 11//3 12//3 16//3
f 10//8 14//8 16//8
f 13//1 17//1 18//1
f 15//9 19//9 17//9
f 15//3 16//3 20//3
f 14//10 18//10 20//10
f 17//1 21//1 22//1
f 19//11 23//11 21//11
f 19//3 20//3 24//3
f 18//12 22//12 24//12
f 22//1 21//1 25//1
f 23//13 27//13 25//13
f 24//3 28//3 27//3
f 22//14 26//14 28//14
f 25//1 29//1 30//1
f 27//15 31//15 29//15
f 27//3 28//3 32//3
f 26//16 30//16 32//16
f 30//1 29//1 33//1
f 31//17 35//17 33//17
f 32//3 36//3 35//3
f 30//18 34//18 36//18
f 34//1 33//1 37//1
f 35//4 39//4 37//4
f 36//3 40//3 39//3
f 34//2 38//2 40//2
f 38//1 37//1 41//1
f 39//6 43//6 41//6
f 40//3 44//3 43//3
f 38//5 42//5 44//5
f 42//1 41//1 45//1
f 43//8 47//8 45//8
f 44//3 48//3 47//3
f 42//7 46//7 48//7
f 46//1 45//1 49//1
f 47//10 51//10 49//10
f 48//3 52//3 51//3
f 46//9 50//9 52//9
f 49//1 53//1 54//1
f 51//12 55//12 53//12
f 51//3 52//3 56//3
f 50//11 54//11 56//11
f 53//1 57//1 58//1
f 55//14 59//14 57//14
f 55//3 56//3 60//3
f 54//13 58//13 60//13
f 57//1 61//1 62//1
f 59//16 63//16 61//16
f 59//3 60//3 64//3
f 58//15 62//15 64//15
f 62//1 61//1 2//1
f 63//18 5//18 2//18
f 64//3 7//3 5//3
f 62//17 1//17 7//17
